<svg xmlns="http://www.w3.org/2000/svg" viewBox="0 0 128 128" style="enable-background:new 0 0 128 128" xml:space="preserve"><path style="fill:#414045" d="M128 54.556c0 3.353-2.757 6.084-6.141 6.084-.153 0-.322 0-.475-.03L110.664 93c-4.196-3.247-23.416-5.689-46.495-5.689-23.064 0-42.284 2.443-46.48 5.689L7.274 61.55c-.368.076-.75.106-1.133.106C2.757 61.656 0 58.925 0 55.572c0-3.368 2.757-6.099 6.141-6.099 3.4 0 6.157 2.731 6.157 6.099 0 1.639-.643 3.11-1.7 4.187 4.885 5.386 11.348 11.682 14.748 11.682 5.559 0 7.259-10.59 7.734-18.934-3.308-.106-5.927-2.792-5.927-6.084 0-3.353 2.741-6.084 6.141-6.084s6.156 2.731 6.156 6.084a6.05 6.05 0 0 1-2.665 5.007c3.14 6.372 8.224 13.897 14.687 13.897 8.5 0 11.318-10.544 12.252-18.145-3.185-.228-5.697-2.867-5.697-6.084 0-3.368 2.741-6.099 6.141-6.099s6.157 2.731 6.157 6.099c0 3.019-2.205 5.522-5.115 6.008 1.501 7.616 5.054 18.221 13.186 18.221 5.942 0 10.552-7.358 13.431-13.684a6.007 6.007 0 0 1-3.002-5.219c0-3.353 2.757-6.084 6.156-6.084 3.4 0 6.157 2.731 6.157 6.084 0 3.307-2.649 5.993-5.957 6.084.429 8.344 2.098 18.934 7.811 18.934 5.498 0 11.608-6.235 15.835-11.591-1.868-1.047-3.124-3.034-3.124-5.295 0-3.368 2.757-6.099 6.157-6.099 3.383 0 6.14 2.731 6.14 6.099z"/></svg>